<?xml version="1.0" encoding="utf-8"?>
<!-- Generator: Adobe Illustrator 22.1.0, SVG Export Plug-In . SVG Version: 6.00 Build 0)  -->
<svg version="1.1" id="Layer_1" xmlns="http://www.w3.org/2000/svg" xmlns:xlink="http://www.w3.org/1999/xlink" x="0px" y="0px"
	 viewBox="0 0 500 500" style="enable-background:new 0 0 500 500;" xml:space="preserve">
<style type="text/css">
	.st0{fill:#1F7BE8;}
	.st1{fill-rule:evenodd;clip-rule:evenodd;fill:#3F434F;}
	.st2{fill-rule:evenodd;clip-rule:evenodd;fill:url(#SVGID_1_);}
	.st3{fill-rule:evenodd;clip-rule:evenodd;fill:#FFFFFF;}
	.st4{fill-rule:evenodd;clip-rule:evenodd;fill:#323641;}
	.st5{fill:#0C9696;}
	.st6{fill:#19B2B8;}
	.st7{fill:url(#SVGID_2_);}
	.st8{filter:url(#Adobe_OpacityMaskFilter);}
	.st9{filter:url(#Adobe_OpacityMaskFilter_1_);}
	.st10{mask:url(#SVGID_3_);fill:url(#SVGID_4_);}
	.st11{opacity:0.16;fill:url(#SVGID_5_);}
	.st12{fill:#FF973C;}
	.st13{fill:#FCD576;}
	.st14{opacity:0.1;fill:#020202;}
	.st15{fill:#EC610E;}
	.st16{fill:#EDEDED;}
	.st17{fill:#5B6D83;}
	.st18{opacity:0.14;}
	.st19{opacity:0.31;}
	.st20{fill:#FFFFFF;}
	.st21{fill:#33D1D1;}
</style>
<rect x="0.3" class="st0" width="500" height="500"/>
<g>
	<path class="st1" d="M372.4,250.4v128.9c0,3.2-1.5,6.1-4,8c-1.9,1.5-4.4,2.5-7.2,2.5H137.6c-6.2,0-11.2-4.7-11.2-10.4V250.4
		c0-3.2,1.6-6.1,4-8c1.9-1.5,4.5-2.4,7.2-2.4h223.7C367.4,240,372.4,244.6,372.4,250.4z"/>
	<linearGradient id="SVGID_1_" gradientUnits="userSpaceOnUse" x1="249.3981" y1="249.8224" x2="249.3981" y2="313.0548">
		<stop  offset="0" style="stop-color:#323641"/>
		<stop  offset="0.2199" style="stop-color:#363B47"/>
		<stop  offset="0.5083" style="stop-color:#404957"/>
		<stop  offset="0.8335" style="stop-color:#515F72"/>
		<stop  offset="1" style="stop-color:#5B6D83"/>
	</linearGradient>
	<rect x="136.9" y="249.8" class="st2" width="225" height="129.4"/>
	<rect x="223.5" y="393" class="st3" width="52.3" height="10.2"/>
	<path class="st4" d="M387.6,395.2c0,8.2-4.3,14.8-9.6,14.8H121.1c-5.3,0-9.6-6.6-9.6-14.8c0-1,0.1-2,0.2-2.8h113.2
		c0.9,2.5,3.4,4.2,6.3,4.2h36.6c2.9,0,5.3-1.7,6.3-4.2h113.2C387.5,393.2,387.6,394.3,387.6,395.2z"/>
	<path class="st5" d="M261.2,262.6h-11.6H238c0,0,10.4,32.3-12.3,90h23.9h23.9C250.7,294.9,261.2,262.6,261.2,262.6z"/>
	<g>
		<path class="st5" d="M162.4,294.3c0,4.3-0.7,8.4-2,12.2c-0.7,1.9-1.5,3.8-2.5,5.6c-3.1,5.8-7.8,10.6-13.3,14.1
			c-2.4,1.5-5,2.7-7.7,3.6v-70.8c14.4,4.8,24.9,18.1,25.5,33.9C162.4,293.3,162.4,293.8,162.4,294.3z"/>
		<path class="st5" d="M273.9,344c0,1.1,0,2.1-0.1,3.1c0,0.1,0,0.3,0,0.4c-0.3,3.3-1.1,6.5-2.2,9.6c-0.3,0.8-0.6,1.5-1,2.3
			c-0.5,1.1-1,2.2-1.6,3.2c-1.6,2.7-3.4,5.2-5.6,7.4c-0.9,1-1.9,1.9-3,2.7c-1.7,1.4-3.5,2.6-5.3,3.7c-1.5,0.8-3,1.5-4.6,2.2
			c-0.6,0.2-1.2,0.4-1.8,0.7h-24.1c-2.2-0.7-4.3-1.7-6.3-2.8c0,0,0,0,0,0c-5.5-3.1-10.1-7.6-13.4-13c-1.2-2-2.3-4.1-3.1-6.3
			c-0.8-2.2-1.4-4.5-1.8-6.8c-0.4-2.1-0.5-4.2-0.5-6.3c0-3,0.4-6,1.1-8.8c2.4-9.8,8.7-18.1,17.1-23.2c2.7-1.6,5.7-2.9,8.8-3.8
			c3.3-0.9,6.7-1.4,10.3-1.4c7,0,13.5,1.9,19.1,5.3c0.7,0.4,1.3,0.8,1.9,1.3C267.4,320,273.9,331.2,273.9,344z"/>
		
			<ellipse transform="matrix(0.9239 -0.3827 0.3827 0.9239 -108.7963 89.1005)" class="st5" cx="169.6" cy="318" rx="26.2" ry="26.2"/>
		
			<ellipse transform="matrix(0.9239 -0.3827 0.3827 0.9239 -108.6186 103.5508)" class="st5" cx="206" cy="324.8" rx="26.2" ry="26.2"/>
		<circle class="st5" cx="294.3" cy="327.9" r="39.5"/>
		<path class="st5" d="M361.9,291.8v52.4c-3.9,3-8.4,5.2-13.4,6.2c-0.5,0.1-1,0.2-1.5,0.3c-1.7,0.3-3.5,0.4-5.3,0.4
			c-1.9,0-3.7-0.2-5.5-0.5c-0.4-0.1-0.9-0.2-1.3-0.2c-1.2-0.2-2.4-0.6-3.5-0.9c-1.1-0.4-2.2-0.8-3.2-1.2c-0.8-0.4-1.6-0.8-2.4-1.2
			c-1.6-0.9-3.2-1.9-4.6-3.1c-1.5-1.2-3-2.6-4.3-4.1c-5.2-5.8-8.3-13.5-8.3-21.9c0-2.1,0.2-4.1,0.5-6c1.1-6.2,4-11.8,8.1-16.3
			c3.8-4.1,8.6-7.3,14-9.2c3.3-1.1,6.8-1.7,10.5-1.7c3.7,0,7.3,0.6,10.6,1.7C355.7,287.8,359,289.6,361.9,291.8z"/>
		<path class="st5" d="M361.9,255.4v66.1c-1.6-0.1-3-0.3-4.5-0.6c-1.2-0.2-2.3-0.5-3.4-0.9c-0.4-0.1-0.9-0.3-1.3-0.5
			c-4.5-1.7-8.5-4.3-11.8-7.6c-3.6-3.6-6.3-7.9-8-12.8c-1.2-3.4-1.8-7-1.8-10.7c0-0.6,0-1.3,0.1-1.9c0.8-13.5,9.6-24.8,21.7-29.2
			C355.7,256.3,358.7,255.6,361.9,255.4z"/>
		<rect x="136.9" y="311.9" class="st5" width="224.9" height="32.1"/>
	</g>
	<path class="st6" d="M356.7,269.4c-2.9,4.9-4.5,10.7-4.5,16.8c0,0.2,0,0.3,0,0.5c0,2.2,0.3,4.4,0.7,6.5v0c0,0,0,0,0,0
		c-0.2,0-0.5,0-0.7,0c-7.2,0-13.9,2.3-19.4,6.2c-2.4,1.7-4.5,3.7-6.4,5.9c-1.8,2.1-3.3,4.4-4.5,6.9c-2.1,4.4-3.3,9.4-3.3,14.6
		c0,4.4,0.8,8.5,2.3,12.3c-1.5,0.2-2.9,0.6-4.3,1c-2.8,0.9-5.5,2.3-7.8,4.1c-1.3,1-2.5,2.1-3.6,3.3c0,0,0,0,0,0
		c-1.7-1.3-3.6-2.4-5.6-3.3c-1.4-0.6-2.9-1.1-4.4-1.4c-5.6-1.3-11.2-0.7-16.1,1.4c-1.9,0.8-3.8,1.9-5.4,3.1
		c-0.1,0.1-0.2,0.2-0.3,0.3l0,0c-2.6-1.4-5.4-2.6-8.5-3.4c-0.4-0.1-0.8-0.2-1.2-0.3c-2-0.5-4-0.7-5.9-0.9c-4.1-0.3-8.2,0.1-12,1.2
		c-1.9,0.5-3.8,1.2-5.7,2h0c-0.7-0.7-1.3-1.4-2-2c-2.7-2.5-5.8-4.6-9.2-6.3c-5.3-2.6-11.2-4.1-17.5-4.1c-3.8,0-7.5,0.5-11,1.5
		c-4.3,1.2-8.3,3.2-11.8,5.7c0,0,0,0,0,0c-0.8-0.9-1.6-1.7-2.5-2.4c-1.3-1.2-2.7-2.2-4.2-3.2c-2.3-1.5-4.7-2.7-7.4-3.5v0
		c-0.4-7.5-3.3-14.4-8-19.7c-1.8-2.1-3.9-4-6.2-5.6c-2.3-1.6-4.9-3-7.6-4c0,0,0,0,0,0c0.2-1.3,0.2-2.6,0.2-4c0-0.3,0-0.6,0-0.8
		c-0.3-11.7-6.7-21.9-16.1-27.6v30.7V327v17.1v13.1v9.3v12.8h35.5H193h25.1h32.2h15.4h26.9h10.3h10.3h33.6h1.3h13.8v-20.6v-1.6
		v-40.8v-6.7v-15.2v-31.9C359.9,264.6,358.1,266.9,356.7,269.4z"/>
	<linearGradient id="SVGID_2_" gradientUnits="userSpaceOnUse" x1="249.4354" y1="262.5859" x2="249.4354" y2="352.5953">
		<stop  offset="0" style="stop-color:#D7EBF6"/>
		<stop  offset="0.8988" style="stop-color:#C4E5F5"/>
		<stop  offset="1" style="stop-color:#C1E4F5"/>
	</linearGradient>
	<path class="st7" d="M253.8,262.6h-4.4h-4.4c0,0,3.9,32.3-4.7,90h9h9C249.9,294.9,253.8,262.6,253.8,262.6z"/>
	<defs>
		<filter id="Adobe_OpacityMaskFilter" filterUnits="userSpaceOnUse" x="130.4" y="239.9" width="242" height="147.4">
			<feFlood  style="flood-color:white;flood-opacity:1" result="back"/>
			<feBlend  in="SourceGraphic" in2="back" mode="normal"/>
		</filter>
	</defs>
	<mask maskUnits="userSpaceOnUse" x="130.4" y="239.9" width="242" height="147.4" id="SVGID_3_">
		<g class="st8">
			<defs>
				<filter id="Adobe_OpacityMaskFilter_1_" filterUnits="userSpaceOnUse" x="130.4" y="239.9" width="242" height="147.4">
					<feFlood  style="flood-color:white;flood-opacity:1" result="back"/>
					<feBlend  in="SourceGraphic" in2="back" mode="normal"/>
				</filter>
			</defs>
			<mask maskUnits="userSpaceOnUse" x="130.4" y="239.9" width="242" height="147.4" id="SVGID_3_">
				<g class="st9">
				</g>
			</mask>
			<linearGradient id="SVGID_4_" gradientUnits="userSpaceOnUse" x1="180.5808" y1="179.1772" x2="289.1712" y2="278.8076">
				<stop  offset="0" style="stop-color:#FFFFFF"/>
				<stop  offset="0.1075" style="stop-color:#EBEBEB"/>
				<stop  offset="0.3268" style="stop-color:#B9B9B9"/>
				<stop  offset="0.6393" style="stop-color:#676767"/>
				<stop  offset="1" style="stop-color:#000000"/>
			</linearGradient>
			<path class="st10" d="M372.4,250.4v128.9c0,3.2-1.5,6.1-4,8l-238-144.9c1.9-1.5,4.4-2.5,7.2-2.5h223.7
				C367.4,239.9,372.4,244.6,372.4,250.4z"/>
		</g>
	</mask>
	<linearGradient id="SVGID_5_" gradientUnits="userSpaceOnUse" x1="180.5808" y1="179.1772" x2="289.1712" y2="278.8076">
		<stop  offset="0" style="stop-color:#FFFFFF"/>
		<stop  offset="1" style="stop-color:#FFFFFF"/>
	</linearGradient>
	<path class="st11" d="M372.4,250.4v128.9c0,3.2-1.5,6.1-4,8l-238-144.9c1.9-1.5,4.4-2.5,7.2-2.5h223.7
		C367.4,239.9,372.4,244.6,372.4,250.4z"/>
	<g>
		<path class="st12" d="M249.3,213.5c0,0-40.2,9.4,0,83.6C289.8,222.9,249.3,213.5,249.3,213.5z"/>
		<path class="st13" d="M249.4,212.4c0,0-23.7,5.5,0,48.9C273.2,217.9,249.4,212.4,249.4,212.4z"/>
		<path class="st14" d="M249.5,297v-83.5C251.1,213.9,289.1,224.3,249.5,297z"/>
		<polygon class="st15" points="217.9,173.9 195.9,190.3 209.7,250.8 220.7,203.9 		"/>
		<polygon class="st15" points="280.9,173.9 302.9,190.3 289.1,250.8 278.1,203.9 		"/>
		<path class="st16" d="M249.6,84c0,0-46.7,51.9-27.3,134.4c0,0,6.4,2.5,27.3,2.8c20.9-0.3,27.3-2.8,27.3-2.8
			C296.3,135.9,249.6,84,249.6,84z"/>
		<path class="st15" d="M271.7,123.4c-6.9,2.3-14.4,3.6-22.1,3.6c-7.8,0-15.2-1.3-22.1-3.6c9.4-25.3,22.1-39.4,22.1-39.4
			S262.3,98.2,271.7,123.4z"/>
		<path class="st17" d="M233.5,220.4v4.5c0,0,13.1,2.6,32,0v-4.5H233.5z"/>
		<g class="st18">
			<path d="M276.9,218.4c0,0-3.1,1.2-11.9,2.1c20.9-61.9,0.9-109.8-9.1-128.1C267.9,110,291.8,155.2,276.9,218.4z"/>
		</g>
		<g class="st19">
			<path class="st20" d="M222.3,218.4c0,0,3.1,1.2,11.9,2.1c-20.9-61.9-0.9-109.8,9.1-128.1C231.3,110,207.4,155.2,222.3,218.4z"/>
		</g>
		<path class="st17" d="M266.7,154.5c0,9.4-7.7,17.1-17.1,17.1c-0.5,0-1,0-1.5-0.1c-2.9-0.3-5.5-1.2-7.8-2.7c-0.4-0.2-0.7-0.5-1-0.7
			c-2.9-2.2-5.1-5.4-6.1-9c-0.4-1.5-0.6-3-0.6-4.6c0-9.4,7.7-17.1,17.1-17.1c0.7,0,1.4,0,2,0.1c3.8,0.5,7.2,2.2,9.9,4.7
			c0.3,0.3,0.6,0.6,0.9,0.9c1.8,2.1,3.2,4.5,3.9,7.3C266.5,151.7,266.7,153.1,266.7,154.5z"/>
		<path class="st6" d="M263.6,154.5c0,7.5-5.9,13.7-13.4,14c-0.2,0-0.4,0-0.6,0c-2.7,0-5.2-0.8-7.3-2.1c-0.3-0.2-0.7-0.4-1-0.7
			c-2.9-2.2-4.9-5.4-5.5-9.2c-0.1-0.7-0.2-1.4-0.2-2.1c0-7.7,6.2-14,13.9-14c0,0,0,0,0.1,0c3.8,0,7.3,1.5,9.8,4
			c0.3,0.3,0.6,0.6,0.8,0.9c1.8,2.1,3,4.7,3.3,7.6C263.6,153.5,263.6,154,263.6,154.5z"/>
		<g>
			<path class="st20" d="M250.3,138.7c0,0.4-0.3,0.7-0.7,0.7s-0.7-0.3-0.7-0.7c0-0.4,0.3-0.7,0.7-0.7S250.3,138.3,250.3,138.7z"/>
			<path class="st20" d="M261.2,143.8c-0.3,0.3-0.8,0.3-1.1,0c-0.3-0.3-0.3-0.8,0-1.1c0.3-0.3,0.8-0.3,1.1,0
				C261.5,143,261.5,143.5,261.2,143.8z"/>
			<circle class="st20" cx="265.3" cy="154.3" r="0.7"/>
			<path class="st20" d="M260.2,165.9c-0.3-0.3-0.3-0.8,0-1.1c0.3-0.3,0.8-0.3,1.1,0c0.3,0.3,0.3,0.8,0,1.1
				C261,166.2,260.5,166.2,260.2,165.9z"/>
			<path class="st20" d="M248.9,170c0-0.4,0.3-0.7,0.7-0.7s0.7,0.3,0.7,0.7c0,0.4-0.3,0.7-0.7,0.7S248.9,170.4,248.9,170z"/>
			<path class="st20" d="M238,164.9c0.3-0.3,0.8-0.3,1.1,0c0.3,0.3,0.3,0.8,0,1.1c-0.3,0.3-0.8,0.3-1.1,0
				C237.7,165.7,237.7,165.2,238,164.9z"/>
			<path class="st20" d="M234,153.6c0.4,0,0.7,0.3,0.7,0.7c0,0.4-0.3,0.7-0.7,0.7c-0.4,0-0.7-0.3-0.7-0.7
				C233.2,154,233.5,153.6,234,153.6z"/>
			<path class="st20" d="M239,142.8c0.3,0.3,0.3,0.8,0,1.1c-0.3,0.3-0.8,0.3-1.1,0c-0.3-0.3-0.3-0.8,0-1.1
				C238.3,142.5,238.8,142.5,239,142.8z"/>
		</g>
		<path class="st21" d="M259.4,144.5l-18.2,21.2c-2.9-2.2-4.9-5.4-5.5-9.2l13.8-16c0,0,0,0,0.1,0C253.4,140.5,256.9,142,259.4,144.5
			z"/>
		<path class="st21" d="M263.5,153l-13.3,15.5c-0.2,0-0.4,0-0.6,0c-2.7,0-5.2-0.8-7.3-2.1l18-21C262,147.5,263.2,150.1,263.5,153z"
			/>
	</g>
</g>
</svg>
