<?xml version="1.0" encoding="utf-8"?>
<svg xmlns="http://www.w3.org/2000/svg" xmlns:xlink="http://www.w3.org/1999/xlink" version= "1.1" width="720px" height="1424px" viewBox="0 0 720 1424">
<g id="layer1">
<g style="fill:rgb(0,182,185); fill-opacity:1.0; stroke-linejoin: miter">
<path d="M-230.52135,291.56476L697.7121,291.56647L1625.9458,291.56824L1625.9458,1554.0999Q697.7121,1554.1016,-230.52135,1554.103Q-230.52135,922.834,-230.52135,291.56476"/>
</g>
<g style="fill:rgb(0,0,0); fill-opacity:1.0; stroke-linejoin: miter">
<path d="M337.50226,1047.258L337.50244,1047.2567C393.94415,997.2206,480.26312,1002.41284,530.30054,1058.8549L530.30115,1058.854C580.33795,1115.2966,575.1461,1201.6154,518.7045,1251.6517L518.7052,1251.6517C462.263,1301.6892,375.94415,1296.4976,325.90717,1240.0562L325.90717,1240.0548C275.8692,1183.6144,281.06073,1097.2963,337.50226,1047.258L337.50244,1047.2567 M364.8164,1078.0686L364.81708,1078.0674C325.39008,1113.0211,321.76355,1173.3165,356.71655,1212.7426L356.7168,1212.7412C391.669,1252.1682,451.96497,1255.795,491.391,1220.843L491.39117,1220.8422C530.81683,1185.8901,534.44336,1125.5945,499.49103,1086.1682L499.4914,1086.1676C464.53888,1046.7423,404.24255,1043.1156,364.8164,1078.0686 Z"/>
</g>
<g style="fill:rgb(0,0,0); fill-opacity:1.0; stroke-linejoin: miter">
<path d="M438.7354,971.42224L438.7351,971.4204C457.29205,972.5305,475.68695,976.52515,493.1903,983.37024L477.03406,1024.6825C463.89484,1019.54395,450.063,1016.53723,436.09088,1015.702 Z M561.4533,1031.0215L561.4541,1031.021C561.4931,1031.0662,561.53217,1031.1105,561.56055,1031.1423L561.56116,1031.1421L561.56055,1031.1423L561.56024,1031.1406C574.2576,1045.4648,584.25275,1061.2965,591.55676,1077.9938L550.9159,1095.7711C545.44824,1083.2708,537.95123,1071.3796,528.3675,1060.5691L528.3681,1060.5682L528.3661,1060.5674L528.3678,1060.5682C528.39484,1060.6005,528.25525,1060.4426,528.2951,1060.4875 Z M606.14557,1159.9357L606.14496,1159.9338C605.0527,1178.4937,601.0741,1196.8914,594.2445,1214.3998L552.91846,1198.2797C558.04535,1185.1357,561.041,1171.302,561.8635,1157.329 Z M546.6485,1282.706L546.6493,1282.7054C546.57404,1282.7725,546.4917,1282.8453,546.4168,1282.9122L546.41754,1282.9111C532.1352,1295.5732,516.35236,1305.5486,499.7072,1312.8462L481.89496,1272.2216C494.35596,1266.7576,506.21063,1259.2761,516.9904,1249.7194L516.9904,1249.7178C517.0653,1249.6528,517.08826,1249.6328,517.1627,1249.5662 Z M417.7765,1327.5055L417.7763,1327.5039C399.21716,1326.4291,380.81573,1322.466,363.30188,1315.6509L379.38684,1274.3121C392.534,1279.4275,406.37158,1282.4111,420.34576,1283.2222 Z M294.95508,1268.1147L294.95557,1268.1143C294.8628,1268.0116,294.7375,1267.8707,294.64764,1267.7689L294.64856,1267.7683C282.02216,1253.5276,272.06677,1237.7922,264.7735,1221.1993L305.38422,1203.3523C310.84338,1215.7738,318.3105,1227.5928,327.8407,1238.3427L327.8413,1238.3418C327.91595,1238.4277,327.99738,1238.5193,328.07147,1238.6023 Z M250.0434,1139.2803L250.04327,1139.2783C251.10461,1120.7191,255.05182,1102.3142,261.85126,1084.7953L303.20526,1100.8444C298.10162,1113.9961,295.12958,1127.8375,294.33032,1141.8121 Z M309.331,1016.4054L309.33173,1016.40515C309.47754,1016.27515,309.63922,1016.13184,309.78888,1015.9983L309.78986,1015.9977C324.15173,1003.266,340.03223,993.2495,356.78033,985.9407L374.5227,1026.597C361.98468,1032.0687,350.0569,1039.5812,339.21613,1049.1915L339.2168,1049.1909C339.10498,1049.29,338.9812,1049.4001,338.8672,1049.5018 Z"/>
</g>
<g style="fill:rgb(0,0,0); fill-opacity:1.0; stroke-linejoin: miter">
<path d="M535.2309,941.3517L535.2309,941.3519L535.2309,941.3523L535.2309,941.3517"/>
</g>
<g style="fill:rgb(0,0,0); fill-opacity:1.0; stroke-linejoin: miter">
<path d="M82.00363,1019.056L82.003876,1019.0559L82.00363,1019.056L82.003876,1019.0559L82.00363,1019.056 Z"/>
</g>
<g style="fill:rgb(0,0,0); fill-opacity:1.0; stroke-linejoin: miter">
<path d="M82.00363,1019.056L82.003876,1019.0559L82.00363,1019.056L82.003876,1019.0559L82.00363,1019.056 Z"/>
</g>
<g style="fill:rgb(157,88,33); fill-opacity:1.0; stroke-linejoin: miter">
<path d="M624.654,1288.1489L624.6541,1288.1489L624.6551,1288.1489L624.6541,1288.1489L624.6547,1288.1497C623.4919,1290.1062,622.16974,1292.2284,621.77167,1292.8838C620.1921,1295.4839,615.98224,1303.1902,614.72186,1305.702C613.9654,1307.2091,612.5411,1309.8856,611.5441,1311.6779C609.32587,1315.6644,600.1362,1334.6099,597.90283,1339.6187C597.0111,1341.6178,595.95074,1343.8928,595.5442,1344.7443C595.1462,1345.5784,594.1073,1348.0168,593.20654,1350.194C592.29956,1352.3848,591.04755,1355.3494,590.38367,1356.8578C587.16425,1364.1764,582.27747,1392.9075,582.6036,1402.5658C582.99396,1414.1427,583.05536,1418.002,582.9056,1421.1821C582.8154,1423.0938,582.7985,1426.6772,582.8494,1429.1821C582.89813,1431.6233,582.5868,1436.769,582.1365,1440.6152C580.64764,1449.834,576.4803,1459.707,576.4803,1459.707C575.27716,1462.5588,573.3583,1467.1641,571.2776,1472.1357C568.156,1479.5923,567.2173,1481.7029,566.43335,1483.3303C565.9713,1484.2896,565.19867,1486.1194,564.74835,1487.2664C563.1455,1491.3506,561.5966,1494.8416,560.936,1496.0383C560.57745,1496.689,559.60785,1498.8743,558.74615,1500.8672C555.78754,1507.71,575.5349,1460.9556,558.75793,1501.3987L546.8496,1522.0513C467.31464,1500.6145,472.48816,1493.113,472.48816,1493.113C472.97137,1492.4119,473.69128,1491.4961,474.05225,1491.0186C474.39478,1490.5654,474.90625,1489.7139,475.18793,1489.2505C475.48322,1488.7659,477.52277,1485.7224,479.68866,1482.4922C481.85492,1479.262,484.6057,1475.022,485.76697,1473.0657C486.9284,1471.1086,488.52563,1468.4514,489.32233,1467.1404C493.63373,1460.0464,496.41785,1454.3899,499.79272,1446.073C501.12427,1442.792,502.11865,1435.6213,501.60376,1432.6741C500.9272,1428.7986,499.6421,1425.0317,497.88654,1421.7944C496.15546,1418.6028,495.252,1416.6956,494.70258,1415.0236C494.52576,1414.4833,493.54517,1412.179,492.5725,1409.9312C487.98114,1399.3207,486.46222,1389.9475,485.70618,1368.328C485.15875,1352.6838,482.04895,1338.3807,476.8875,1327.4222C475.9272,1325.3832,474.88257,1322.9772,474.586,1322.1787C474.1311,1320.9536,469.47607,1312.5277,466.65912,1307.8474C465.86688,1306.5317,459.39874,1296.849,455.09198,1290.591C452.01038,1286.113,450.12256,1280.9523,450.8935,1279.0059C452.45746,1275.0552,458.276,1272.2535,463.43402,1272.9508C466.26453,1273.3341,472.59497,1276.0044,473.07,1277.008C473.24408,1277.3751,473.81122,1277.6846,474.31464,1277.7526C475.44678,1277.906,480.73035,1282.9094,485.26477,1288.2002C488.86298,1292.3997,496.74023,1303.836,500.04114,1309.6707C501.13477,1311.6042,502.2085,1313.4918,502.4242,1313.836C503.78925,1316.0114,510.02856,1328.1875,509.98602,1328.5023C509.96045,1328.6903,510.46466,1329.8341,511.11823,1331.0253C512.9319,1334.3317,516.92194,1343.5312,516.83685,1344.1603C516.7855,1344.538,517.2596,1345.3606,517.8024,1346.0206C518.80035,1347.235,519.0299,1346.8912,524.3945,1335.6384C527.4345,1329.2594,530.23883,1323.369,530.6513,1322.5209C534.6769,1314.2324,537.476,1298.9766,536.5607,1290.6517C535.8957,1284.6068,534.4525,1275.6232,533.73615,1273.1676C533.4023,1272.0227,533.1612,1270.7838,533.2123,1270.4061C533.2635,1270.0289,533.11145,1269.1815,532.82983,1268.4967C532.58124,1267.8925,531.8045,1264.9749,531.0756,1262.0465C529.2306,1254.6338,528.7146,1252.5034,526.47626,1244.8986C525.73,1242.3639,525.1386,1240.1058,525.1811,1239.7915C525.22345,1239.4767,524.9945,1238.4149,524.6146,1237.345C523.4173,1233.9746,522.57983,1230.6007,522.699,1229.7196C522.76685,1229.2166,522.5634,1228.5785,522.3286,1228.1963C522.08887,1227.8068,521.61957,1225.8588,521.24536,1223.8865C520.8717,1221.9143,520.4125,1219.5508,520.2191,1218.6873C520.0132,1217.767,519.7807,1214.5245,519.6619,1211.4382C519.4683,1206.4116,519.6189,1205.3541,521.11926,1201.1309C524.78735,1190.8076,530.138,1186.4795,534.9146,1190.0568C537.7572,1192.1848,538.8366,1195.8958,539.6507,1206.1981C540.6322,1218.6215,543.23065,1228.5233,547.1193,1234.8148C550.2733,1239.9171,556.12115,1252.3788,558.95245,1260.0503C562.59106,1269.9073,563.3094,1270.1191,564.5121,1261.5704C564.96234,1258.3635,566.0411,1253.5782,566.9183,1250.8784C567.7961,1248.1793,568.6618,1245.0934,568.7972,1244.0868C569.1973,1241.1305,572.1298,1233.5133,575.0141,1227.9534C579.5805,1219.1478,585.44836,1211.8752,590.95154,1208.1373C596.3808,1204.45,600.4006,1204.7186,603.58856,1208.9487C605.6149,1211.6377,605.5087,1212.7996,603.05597,1215.7307C601.994,1217.0,601.0919,1218.4113,601.0328,1218.8517C600.97327,1219.2915,600.6364,1219.8868,600.27905,1220.159C599.2796,1220.9205,591.8346,1234.7748,591.6304,1236.2844C591.537,1236.9767,590.8384,1238.7351,590.0711,1240.2369C588.57367,1243.1687,586.1504,1259.3691,586.4201,1264.4042C586.56805,1267.1763,588.0749,1268.2134,588.7659,1266.0026C588.9775,1265.3253,590.3762,1262.3208,591.84033,1259.3722C601.8189,1239.2714,611.87994,1229.6047,615.88837,1236.4258C617.4001,1238.9984,617.5361,1240.5626,616.4161,1243.4143C615.3868,1246.037,613.41534,1251.4658,610.48395,1260.2915C609.52606,1263.1741,608.29095,1266.7106,607.7432,1268.2484C606.74335,1271.0503,605.3099,1275.7317,603.2066,1283.3279C602.55695,1285.6726,601.5837,1288.8785,601.03345,1290.4005C599.63995,1294.2528,598.0254,1301.4822,598.4026,1302.2793C598.6741,1302.8525,602.3128,1299.4126,602.44,1298.4688C602.4654,1298.2802,603.31085,1297.2415,604.3443,1296.2281C605.3785,1295.215,606.2233,1294.1765,606.24884,1293.9874C606.2828,1293.7358,607.3162,1292.5792,608.519,1291.4122C609.7497,1290.2179,610.7631,1289.0258,610.79694,1288.774C610.83966,1288.4597,611.8907,1287.3206,613.1214,1286.2699C614.35175,1285.219,615.8249,1283.6111,616.40765,1282.8068C617.5579,1281.2185,622.8477,1277.3357,623.7917,1277.4634C624.1059,1277.506,624.88666,1278.0901,625.53424,1278.788C627.40326,1280.8013,627.0645,1284.0555,624.654,1288.1489L624.6541,1288.1489L624.654,1288.1489L624.6541,1288.1489L624.654,1288.1489 Z"/>
</g>
<g style="fill:rgb(0,0,0); fill-opacity:1.0; stroke-linejoin: miter">
<path d="M561.03986,1495.8455L561.0582,1495.8469L561.03973,1495.8455 Z"/>
</g>
<g style="fill:rgb(255,255,255); fill-opacity:1.0; stroke-linejoin: miter">
<path d="M497.7716,1423.5212L486.80353,1443.5579L475.8352,1463.595Q521.08044,1488.363,566.32605,1513.1316Q577.2953,1493.0955,588.2643,1473.0586Q543.01794,1448.2893,497.7716,1423.5212 Z"/>
</g>
<g style="fill:rgb(0,0,0); fill-opacity:1.0; stroke-linejoin: miter">
<path d="M181.44385,991.79846L181.44318,991.7982C119.866455,946.9956,33.627502,960.59424,-11.175659,1022.17053L-11.176147,1022.1698C-55.978424,1083.747,-42.381134,1169.984,19.195526,1214.7869L19.194824,1214.7866C80.772095,1259.5897,167.01105,1245.9928,211.81439,1184.4165L211.81348,1184.4164C256.61884,1122.8403,243.02094,1036.6022,181.44385,991.79846L181.44318,991.7982 M156.98657,1025.412L156.98596,1025.4111C200.00043,1056.7079,209.49854,1116.947,178.2013,1159.9601L178.20087,1159.9598C146.90472,1202.9724,86.664764,1212.4711,43.651917,1181.1748L43.65143,1181.1742C0.6388855,1149.8788,-8.858856,1089.6399,22.437073,1046.6266L22.436249,1046.626C53.733,1003.61426,113.973145,994.11584,156.98657,1025.412 Z"/>
</g>
<g style="fill:rgb(0,0,0); fill-opacity:1.0; stroke-linejoin: miter">
<path d="M72.3504,925.4197L72.350494,925.4176C53.810303,928.33484,35.713104,934.1349,18.7883,942.7129L39.034454,982.65906C51.739594,976.2201,65.34732,971.8557,79.306915,969.6603 Z M-45.18329,997.22546L-45.184326,997.2252C-45.218903,997.2742,-45.253876,997.3225,-45.27948,997.3574L-45.28009,997.35693L-45.27948,997.3574L-45.27893,997.35535C-56.64795,1012.9823,-65.15527,1029.8619,-70.87369,1047.3499L-28.307922,1061.2683C-24.02716,1048.1769,-17.647827,1035.4993,-9.066925,1023.70557L-9.067505,1023.7051L-9.065399,1023.704L-9.067261,1023.7046C-9.091278,1023.7396,-8.966187,1023.5679,-9.001984,1023.6167 Z M-77.57886,1131.1096L-77.5784,1131.108C-74.67874,1149.6527,-68.89444,1167.7542,-60.331665,1184.6857L-20.368317,1164.4744C-26.796295,1151.764,-31.149872,1138.1533,-33.332794,1124.1914 Z M-5.8708496,1248.7057L-5.871643,1248.7053C-5.7895813,1248.7655,-5.6998596,1248.8306,-5.6178894,1248.8901L-5.618622,1248.8893C9.963104,1260.2273,26.791687,1268.719,44.226868,1274.4368L58.18289,1231.8837C45.130127,1227.6027,32.49066,1221.2355,20.730103,1212.678L20.730194,1212.6761C20.648468,1212.6188,20.623566,1212.6007,20.542297,1212.5411 Z M127.9834,1281.2145L127.9834,1281.2123C146.52966,1278.3304,164.63666,1272.5612,181.57489,1264.0133L161.39746,1224.0326C148.6825,1230.4497,135.06628,1234.791,121.102356,1236.963 Z M245.6435,1209.6082L245.64276,1209.6073C245.72589,1209.4952,245.83795,1209.3418,245.9184,1209.2311L245.91772,1209.2303C257.2235,1193.6937,265.70007,1176.9149,271.41833,1159.5323L228.87439,1145.5404C224.59497,1158.5526,218.23865,1171.1547,209.70508,1182.8826L209.70435,1182.8817C209.63782,1182.9751,209.56458,1183.0752,209.49829,1183.1658 Z M278.26764,1075.7811L278.26715,1075.7792C275.39886,1057.2319,269.64514,1039.1198,261.11127,1022.17505L221.11188,1042.3179C227.51764,1055.0387,231.84827,1068.6588,234.00793,1082.6245 Z M206.75775,958.05945L206.75732,958.05884C206.59802,957.9426,206.42181,957.8142,206.25818,957.6947L206.25745,957.6941C190.58862,946.2943,173.65778,937.77075,156.11761,932.0521L142.23517,974.6306C155.36621,978.91187,168.08209,985.30286,179.90906,993.90796L179.90851,993.907C180.03027,993.9961,180.16522,994.0947,180.28998,994.1859 Z"/>
</g>
<g style="fill:rgb(0,0,0); fill-opacity:1.0; stroke-linejoin: miter">
<path d="M325.5592,1021.9823L325.55798,1021.9818L325.55798,1021.9829L325.5592,1021.9823"/>
</g>
<g style="fill:rgb(0,0,0); fill-opacity:1.0; stroke-linejoin: miter">
<path d="M-81.825714,1230.3903L-81.82593,1230.3899L-81.825714,1230.3903L-81.82593,1230.3899L-81.825714,1230.3903 Z"/>
</g>
<g style="fill:rgb(0,0,0); fill-opacity:1.0; stroke-linejoin: miter">
<path d="M-81.825714,1230.3903L-81.82593,1230.3899L-81.825714,1230.3903L-81.82593,1230.3899L-81.825714,1230.3903 Z"/>
</g>
<g style="fill:rgb(255,179,143); fill-opacity:1.0; stroke-linejoin: miter">
<path d="M-83.730286,1261.7484L-83.73062,1261.7484L-83.73123,1261.7488L-83.73041,1261.7488L-83.73111,1261.7488C-82.37262,1263.6022,-80.8378,1265.6064,-80.37399,1266.2264C-78.534454,1268.6859,-73.55594,1276.0214,-72.04547,1278.4226C-71.13907,1279.8641,-69.44803,1282.4152,-68.27197,1284.1195C-65.65573,1287.9102,-54.581482,1306.0566,-51.851044,1310.8733C-50.76117,1312.7957,-49.474304,1314.9788,-48.983276,1315.7954C-48.50241,1316.5945,-47.22162,1318.9443,-46.10501,1321.0442C-44.98117,1323.1581,-43.435333,1326.0156,-42.62143,1327.4669C-38.67569,1334.5088,-30.975922,1362.9065,-30.365356,1372.6438C-29.634125,1384.3153,-29.321259,1388.1997,-28.861633,1391.3807C-28.585144,1393.2936,-28.220215,1396.8927,-28.028503,1399.4149C-27.840332,1401.8722,-27.027832,1407.0131,-26.202148,1410.8347C-23.811005,1419.9539,-18.664764,1429.4712,-18.664764,1429.4712C-17.178864,1432.22,-14.803619,1436.6611,-12.229767,1441.4551C-8.3688965,1448.645,-7.2207947,1450.6748,-6.2752075,1452.2344C-5.7175293,1453.1531,-4.7632446,1454.9167,-4.1996155,1456.0259C-2.1921997,1459.9751,-0.2965088,1463.3323,0.48306274,1464.4714C0.9063721,1465.0906,2.0932312,1467.1919,3.1524048,1469.1108C6.790039,1475.7,-17.593628,1430.6335,3.1922607,1469.646L17.164307,1489.2444C95.00879,1459.9817,89.08145,1452.9458,89.08145,1452.9458C88.5278,1452.2881,87.715515,1451.4377,87.30618,1450.9929C86.91846,1450.5706,86.32144,1449.7642,85.99338,1449.3259C85.649536,1448.8674,83.30441,1446.0073,80.81427,1442.9719C78.32367,1439.9363,75.147736,1435.9424,73.79086,1434.0889C72.43399,1432.2349,70.57074,1429.72,69.643005,1428.48C64.62161,1421.7693,61.274597,1416.3549,57.075867,1408.3256C55.418945,1405.1576,53.723694,1398.0481,53.954742,1395.0365C54.258575,1391.0763,55.184265,1387.1661,56.633972,1383.7426C58.06372,1380.3674,58.78665,1378.363,59.17627,1376.6295C59.301697,1376.0691,60.063293,1373.6589,60.82199,1371.3052C64.40625,1360.1971,65.02234,1350.6299,63.683105,1328.831C62.71457,1313.0571,64.45087,1298.382,68.57367,1286.8687C69.340576,1284.7262,70.15735,1282.2073,70.377655,1281.376C70.71579,1280.1006,74.5759,1271.1819,76.95221,1266.2053C77.62039,1264.8059,83.18027,1254.4473,86.90057,1247.7411C89.56271,1242.9418,90.95856,1237.5731,89.99515,1235.6917C88.039734,1231.8728,81.92087,1229.6232,76.80496,1230.825C73.997894,1231.4843,67.89581,1234.7825,67.51553,1235.8365C67.3764,1236.2227,66.836334,1236.5892,66.33716,1236.7062C65.2142,1236.97,60.390778,1242.5106,56.34784,1248.268C53.139374,1252.8374,46.333557,1265.0946,43.58304,1271.2777C42.671906,1273.3275,41.776062,1275.3281,41.59265,1275.6956C40.43225,1278.014,35.34433,1290.855,35.41745,1291.167C35.46173,1291.3538,35.065857,1292.5522,34.52475,1293.8124C33.02353,1297.3115,29.90683,1306.9436,30.053467,1307.5675C30.141602,1307.942,29.744995,1308.8147,29.263458,1309.5305C28.378662,1310.8473,28.114563,1310.5245,21.6315,1299.737C17.957,1293.6221,14.567444,1287.975,14.070343,1287.1624C9.22052,1279.2244,4.9260254,1264.1653,5.038147,1255.7113C5.1194153,1249.5725,5.6972656,1240.4042,6.178833,1237.867C6.40329,1236.6838,6.525299,1235.4159,6.4372864,1235.041C6.349243,1234.6671,6.419922,1233.8008,6.636017,1233.0858C6.8273926,1232.4541,7.324585,1229.4465,7.7727356,1226.433C8.906708,1218.8052,9.218903,1216.614,10.729919,1208.7549C11.233612,1206.1353,11.608856,1203.8086,11.5355835,1203.4971C11.462677,1203.1848,11.589386,1202.0955,11.867157,1200.9835C12.743256,1197.48,13.25705,1194.0079,13.052002,1193.1345C12.9348755,1192.6357,13.077087,1191.9747,13.276062,1191.5681C13.47937,1191.1531,13.76178,1189.1503,13.945953,1187.132C14.130402,1185.1136,14.362579,1182.6937,14.473022,1181.8076C14.590271,1180.8624,14.509216,1177.5822,14.329102,1174.4691C14.0355835,1169.3987,13.781708,1168.3507,11.86377,1164.2521C7.1755066,1154.2347,1.3787231,1150.4052,-3.0740967,1154.4636C-5.724304,1156.878,-6.4486084,1160.7114,-6.2666016,1171.1436C-6.047058,1183.7235,-7.696167,1193.9258,-10.993561,1200.6256C-13.667786,1206.0592,-18.334137,1219.1494,-20.434845,1227.1337C-23.134216,1237.3923,-23.83545,1237.6749,-25.87381,1229.2004C-26.638,1226.0222,-28.186096,1221.3179,-29.329803,1218.6901C-30.473969,1216.0629,-31.64383,1213.0459,-31.877533,1212.0475C-32.56668,1209.1154,-36.253143,1201.7456,-39.691162,1196.4381C-45.134888,1188.0334,-51.737762,1181.2948,-57.630554,1178.0725C-63.444397,1174.8938,-67.45795,1175.5548,-70.2511,1180.1147C-72.026184,1183.0138,-71.80618,1184.1709,-69.05722,1186.8783C-67.86658,1188.0505,-66.823395,1189.3813,-66.72104,1189.8182C-66.61832,1190.254,-66.22223,1190.8197,-65.83713,1191.0588C-64.758484,1191.7267,-55.931854,1204.9265,-55.580017,1206.4237C-55.41925,1207.11,-54.546326,1208.8092,-53.629395,1210.244C-51.84012,1213.0449,-47.83191,1229.0898,-47.614197,1234.1752C-47.493988,1236.9751,-48.907288,1238.1635,-49.81662,1236.0089C-50.09494,1235.3489,-51.792023,1232.4658,-53.54962,1229.6449C-65.528564,1210.4143,-76.577545,1201.677,-79.943115,1208.9199C-81.212555,1211.6522,-81.19751,1213.2375,-79.79529,1215.9944C-78.50604,1218.5303,-75.99783,1223.794,-72.195465,1232.3782C-70.95303,1235.1824,-69.36835,1238.6161,-68.66852,1240.1077C-67.392,1242.8269,-65.49704,1247.3921,-62.645813,1254.821C-61.765625,1257.1143,-60.47635,1260.2411,-59.77536,1261.7178C-58.001404,1265.4531,-55.67685,1272.5614,-55.97821,1273.3989C-56.195465,1274.0016,-60.18631,1270.8977,-60.40576,1269.9619C-60.449554,1269.7751,-61.400024,1268.813,-62.536957,1267.8951C-63.6745,1266.977,-64.62436,1266.0156,-64.66818,1265.8282C-64.72684,1265.5789,-65.87784,1264.5171,-67.19922,1263.4609C-68.55206,1262.3802,-69.68631,1261.2805,-69.74478,1261.031C-69.81802,1260.719,-70.98477,1259.6761,-72.32379,1258.7399C-73.66235,1257.8031,-75.29843,1256.3309,-75.96225,1255.5785C-77.27203,1254.095,-82.96509,1250.706,-83.901276,1250.9263C-84.21332,1250.9991,-84.94098,1251.6626,-85.52359,1252.4265C-87.20633,1254.631,-86.55008,1257.8682,-83.730286,1261.7484L-83.73041,1261.7488L-83.730286,1261.7484L-83.73062,1261.7484L-83.730286,1261.7484 Z"/>
</g>
<g style="fill:rgb(0,0,0); fill-opacity:1.0; stroke-linejoin: miter">
<path d="M644.23444,1001.34644L644.23444,1001.3468L644.23444,1001.34644L644.23444,1001.3468L644.23444,1001.34644 Z"/>
</g>
<g style="fill:rgb(0,0,0); fill-opacity:1.0; stroke-linejoin: miter">
<path d="M644.23444,1001.34644L644.23444,1001.3468L644.23444,1001.34644L644.23444,1001.3468L644.23444,1001.34644 Z"/>
</g>
<g style="fill:rgb(0,0,0); fill-opacity:1.0; stroke-linejoin: miter">
<path d="M617.7033,922.5182L617.70416,922.5176C664.278,863.323,750.0214,853.09155,809.2166,899.6654L809.21735,899.6643C868.4123,946.23914,878.6442,1031.982,832.0701,1091.1772L832.07074,1091.1765C785.49615,1150.3729,699.75226,1160.6046,640.5568,1114.0302L640.5573,1114.0299C581.3609,1067.4567,571.1298,981.71375,617.7033,922.5182L617.70416,922.5176 M650.0168,947.94165L650.017,947.9403C617.4827,989.2908,624.63007,1049.1844,665.98004,1081.7175L665.9808,1081.7172C707.3299,1114.2505,767.2243,1107.1036,799.75726,1065.7543L799.7576,1065.7534C832.2907,1024.4048,825.1431,964.5106,783.79376,931.97754L783.79425,931.9768C742.44415,899.4448,682.5501,906.5919,650.0168,947.94165 Z"/>
</g>
<g style="fill:rgb(0,0,0); fill-opacity:1.0; stroke-linejoin: miter">
<path d="M703.70905,830.016L703.7087,830.0139C722.1407,827.8086,740.92584,828.46606,759.34125,832.083L750.80426,875.5481C736.98004,872.833,722.8543,872.3353,708.9765,873.99695 Z M834.8847,866.78125L834.88556,866.78064C834.9316,866.818,834.9781,866.8545,835.01154,866.881L835.01215,866.88025L835.01154,866.881L835.0109,866.87915C850.0324,878.69885,862.6663,892.4806,872.8099,907.59045L836.03217,932.2783C828.4388,920.96655,818.9594,910.6135,807.62177,901.69324L807.62225,901.6926L807.6203,901.692L807.622,901.69226C807.6541,901.7191,807.4891,901.5891,807.53595,901.626 Z M901.7016,985.51855L901.70074,985.51685C903.9246,1003.949,903.283,1022.73413,899.6823,1041.1523L856.2098,1032.6526C858.9129,1018.82666,859.39923,1004.7003,857.72504,990.8235 Z M865.04596,1116.7284L865.0468,1116.7278C864.9843,1116.8073,864.9168,1116.8933,864.8549,1116.9719L864.85516,1116.9707C853.0701,1131.9506,839.3328,1144.5566,824.2729,1154.6849L799.5529,1117.9281C810.8272,1110.3456,821.1473,1100.8887,830.04266,1089.582L830.04205,1089.5804C830.1043,1089.5034,830.12335,1089.4796,830.18463,1089.4014 Z M746.36725,1183.6438L746.36676,1183.6422C727.9384,1185.8823,709.15204,1185.257,690.7321,1181.6718L699.1944,1138.1921C713.02216,1140.8834,727.1496,1141.3574,741.0256,1139.672 Z M615.1259,1147.1007L615.1263,1147.1C615.017,1147.0154,614.8691,1146.8994,614.7624,1146.8153L614.76337,1146.8147C599.82635,1135.0641,587.2486,1121.3701,577.13434,1106.3605L613.8702,1081.6089C621.4411,1092.845,630.8781,1103.133,642.1525,1112.0029L642.15314,1112.0022C642.2414,1112.0734,642.3382,1112.1487,642.4255,1112.2172 Z M548.1083,1028.4794L548.10706,1028.4775C545.85394,1010.05164,546.46375,991.2648,550.03296,972.84216L593.52057,981.26685C590.84143,995.09705,590.379,1009.2257,592.0769,1023.1001 Z M584.5409,897.20544L584.54126,897.20447C584.66144,897.05115,584.7947,896.8815,584.9184,896.72375L584.9188,896.723C596.77014,881.66125,610.5961,868.9973,625.75507,858.84033L650.4118,895.6394C639.0634,903.2433,628.67645,912.74426,619.7314,924.11365L619.7315,924.1129C619.6396,924.23047,619.5379,924.3606,619.4433,924.48047 Z"/>
</g>
<g style="fill:rgb(0,0,0); fill-opacity:1.0; stroke-linejoin: miter">
<path d="M541.8602,966.30273L541.86005,966.30286L541.85986,966.303L541.8602,966.30273"/>
</g>
<g style="fill:rgb(255,199,168); fill-opacity:1.0; stroke-linejoin: miter">
<path d="M942.66534,1108.2201L942.6656,1108.2206L942.6663,1108.2201L942.6656,1108.2206L942.6662,1108.2206C941.87115,1110.35,940.9488,1112.67,940.67377,1113.3848C939.58344,1116.2206,936.81635,1124.5408,936.0236,1127.2328C935.54816,1128.8485,934.62396,1131.7312,933.9626,1133.6696C932.49115,1137.9812,926.8265,1158.2303,925.52155,1163.5496C925.0003,1165.6722,924.3621,1168.096,924.1143,1169.0054C923.8709,1169.8954,923.2835,1172.4763,922.78534,1174.7754C922.28326,1177.0895,921.5794,1180.2247,921.1949,1181.8252C919.3316,1189.5886,919.6336,1218.6901,921.6695,1228.1228C924.1098,1239.4296,924.8558,1243.2109,925.2735,1246.3627C925.5245,1248.2572,926.1442,1251.7816,926.6391,1254.2339C927.1208,1256.624,927.7292,1261.7358,927.9699,1265.5953C928.1446,1274.9187,925.8033,1285.3613,925.8033,1285.3613C925.1276,1288.3767,924.06024,1293.243,922.8986,1298.4979C921.1558,1306.3798,920.608,1308.6202,920.127,1310.3594C919.8433,1311.3835,919.40875,1313.3192,919.1701,1314.5261C918.32074,1318.8243,917.4183,1322.5295,916.98285,1323.8237C916.7458,1324.5269,916.18134,1326.8457,915.6884,1328.9576C913.9965,1336.2068,925.0961,1286.7556,915.794,1329.4774L907.7613,1351.8876C825.7972,1344.9514,829.54877,1336.6609,829.54877,1336.6609C829.8986,1335.886,830.44354,1334.8582,830.71344,1334.3252C830.96967,1333.8187,831.3206,1332.8907,831.5151,1332.3856C831.7193,1331.8566,833.1829,1328.5042,834.73737,1324.9452C836.29254,1321.3862,838.2425,1316.731,839.0361,1314.6022C839.8293,1312.4725,840.9267,1309.5776,841.4771,1308.1483C844.4534,1300.411,846.1844,1294.3578,848.0236,1285.586C848.74884,1282.1256,848.4522,1274.9026,847.4229,1272.0974C846.0695,1268.4095,844.1374,1264.9364,841.837,1262.0668C839.5695,1259.2383,838.3427,1257.5245,837.50555,1255.9786C837.2358,1255.4795,835.8631,1253.3893,834.5085,1251.3534C828.1115,1241.7423,824.9539,1232.8011,820.37054,1211.6907C817.0535,1196.4155,811.45685,1182.9131,804.4379,1173.0613C803.1326,1171.2281,801.6785,1169.0498,801.2452,1168.3177C800.5805,1167.1946,794.50946,1159.7416,790.9097,1155.6431C789.898,1154.4908,781.82184,1146.1249,776.47797,1140.7405C772.65436,1136.8878,769.88275,1132.1519,770.2945,1130.1019C771.1297,1125.9421,776.34955,1122.1559,781.5422,1121.9253C784.3913,1121.7986,791.08624,1123.2981,791.7316,1124.1995C791.9676,1124.5295,792.58026,1124.7333,793.08673,1124.7103C794.22675,1124.6602,800.30695,1128.6378,805.7028,1133.032C809.9843,1136.5188,819.75714,1146.3575,824.0368,1151.5043C825.45526,1153.2104,826.8454,1154.8745,827.1187,1155.1748C828.8466,1157.0702,837.14056,1167.926,837.1546,1168.2428C837.16266,1168.4325,837.86176,1169.4669,838.7154,1170.5212C841.0848,1173.4481,846.6397,1181.7794,846.66815,1182.4127C846.6844,1182.7927,847.2972,1183.5173,847.94745,1184.0688C849.1436,1185.085,849.30817,1184.7065,852.5806,1172.6957C854.435,1165.8876,856.144,1159.6012,856.39874,1158.6937C858.88214,1149.8346,858.9228,1134.346,856.5445,1126.3282C854.8173,1120.5066,851.80316,1111.9352,850.6629,1109.6495C850.13153,1108.5835,849.675,1107.4088,849.6579,1107.0286C849.6413,1106.6489,849.3414,1105.8431,848.94305,1105.2207C848.59125,1104.6709,847.3095,1101.9418,846.07306,1099.1934C842.94366,1092.2374,842.0578,1090.2355,838.5075,1083.1604C837.3239,1080.8021,836.3414,1078.6882,836.32745,1078.372C836.3132,1078.0549,835.8997,1077.0521,835.33636,1076.0682C833.5611,1072.9688,832.13873,1069.8019,832.0992,1068.9153C832.0767,1068.4088,831.76373,1067.818,831.4648,1067.4845C831.16,1067.1443,830.3531,1065.3134,829.6348,1063.4418C828.9173,1061.5698,828.0463,1059.3287,827.70294,1058.5149C827.337,1057.6471,826.53265,1054.5028,825.8675,1051.4908C824.78436,1046.5858,824.7443,1045.5199,825.46844,1041.103C827.23895,1030.3075,831.7281,1025.1044,837.05695,1027.7709C840.2288,1029.3572,841.94867,1032.8118,844.5787,1042.7911C847.7502,1054.8242,852.0622,1064.0925,857.0014,1069.5841C861.0069,1074.0376,868.96686,1085.2445,873.11224,1092.2799C878.4388,1101.32,879.18243,1101.4003,878.84503,1092.786C878.7181,1089.5552,878.9277,1084.661,879.3101,1081.852C879.6933,1079.0435,879.99554,1075.8579,879.95013,1074.8446C879.8182,1071.8685,881.34686,1063.8625,883.1932,1057.8865C886.116,1048.4224,890.5905,1040.2339,895.3339,1035.583C900.01385,1030.9951,904.0118,1030.5457,907.89594,1034.1359C910.3648,1036.4181,910.467,1037.5786,908.57733,1040.8945C907.7591,1042.3307,907.1237,1043.8773,907.14374,1044.3209C907.16315,1044.7634,906.9382,1045.4081,906.6352,1045.7394C905.7885,1046.6649,900.93365,1061.602,901.0013,1063.1218C901.0323,1063.8182,900.6584,1065.6705,900.1712,1067.2823C899.22064,1070.4296,899.7171,1086.7799,900.87616,1091.6793C901.51447,1094.377,903.17914,1095.1282,903.4655,1092.8326C903.5534,1092.1296,904.3941,1088.9291,905.3089,1085.7715C911.5435,1064.2466,919.7131,1052.9604,924.8632,1058.951C926.8055,1061.2106,927.21747,1062.7236,926.6236,1065.7246C926.0777,1068.4851,925.1048,1074.1693,923.7923,1083.3629C923.3631,1086.3657,922.7778,1090.0599,922.5124,1091.6682C922.0279,1094.5996,921.451,1099.4547,920.7332,1107.2922C920.5114,1109.7119,920.1247,1113.0348,919.8543,1114.6285C919.1694,1118.6611,918.8671,1126.052,919.3791,1126.7684C919.7481,1127.2836,922.7126,1123.2566,922.67,1122.3069C922.66144,1122.1173,923.3072,1120.9462,924.1431,1119.7671C924.97955,1118.5876,925.62494,1117.4172,925.61664,1117.2269C925.6055,1116.9735,926.41547,1115.6537,927.3897,1114.2932C928.3869,1112.9008,929.17145,1111.5488,929.1597,1111.296C929.1458,1110.9792,929.9759,1109.6729,930.99896,1108.4219C932.0213,1107.1709,933.18353,1105.3292,933.6131,1104.4349C934.4609,1102.6704,938.9694,1097.9148,939.9196,1097.8726C940.2365,1097.8589,941.1071,1098.2944,941.8671,1098.8649C944.06146,1100.5115,944.3067,1103.769,942.66534,1108.2201L942.6656,1108.2206L942.66534,1108.2201L942.6656,1108.2206L942.66534,1108.2201 Z"/>
</g>
<g style="fill:rgb(0,0,0); fill-opacity:1.0; stroke-linejoin: miter">
<path d="M834.8676,1278.225L814.471,1331.7767L794.07477,1385.3284Q847.45074,1405.6584,900.82526,1425.988Q921.2233,1372.4369,941.6193,1318.8851Q888.2432,1298.5549,834.8676,1278.225 Z"/>
</g>
<g style="fill:rgb(255,255,255); fill-opacity:1.0; stroke-linejoin: miter">
<path d="M842.03107,1263.7842L834.8127,1285.4219L827.59406,1307.0597Q876.4545,1323.3615,925.3156,1339.6627Q932.5352,1318.0256,939.75494,1296.3881Q890.89276,1280.0854,842.03107,1263.7842 Z"/>
</g>
<g style="fill:rgb(0,0,0); fill-opacity:1.0; stroke-linejoin: miter">
<path d="M827.2482,1272.8083L785.6779,1395.5204L721.3942,1554.1016Q794.18695,1554.1013,866.9797,1554.1013C894.1232,1474.0159,921.2537,1393.9308,948.3842,1313.8457C944.0595,1312.3806,939.7348,1310.9155,935.41,1309.4504Q935.2564,1309.9049,935.1031,1310.3594L935.0931,1310.3611Q935.2447,1309.9049,935.3964,1309.4504C930.7779,1307.8812,926.1458,1306.3119,921.5136,1304.7429L921.5003,1304.7445C897.15753,1296.4917,872.80145,1288.2405,848.4455,1279.9893L848.4202,1279.9908C848.4201,1279.9879,848.4201,1279.9865,848.4201,1279.9851L848.4328,1279.9867C848.4328,1279.9851,848.4328,1279.9851,848.4328,1279.9851L848.4201,1279.9867C844.9007,1278.7886,841.3687,1277.5919,837.8366,1276.3953L837.82404,1276.3969C834.30707,1275.1996,830.77765,1274.004,827.2482,1272.8083 Z M840.27826,1311.2958Q840.2895,1311.2997,840.3007,1311.3032L840.27545,1311.3049C840.2764,1311.3009,840.2774,1311.2982,840.27826,1311.2958 Z M919.5225,1312.0209L919.5225,1312.0225C919.5124,1312.0573,919.5008,1312.101,919.48773,1312.1515L919.47614,1312.1531C919.48895,1312.101,919.5003,1312.0573,919.5101,1312.0209 Z M933.3035,1315.7229Q933.3156,1315.7275,933.3276,1315.732L933.314,1315.7336Q932.7862,1317.3087,932.2586,1318.8851L932.24835,1318.8868Q932.77594,1317.3041,933.3035,1315.7229 Z"/>
</g>
<g style="fill:rgb(0,0,0); fill-opacity:1.0; stroke-linejoin: miter">
<path d="M913.5621,1335.7415L907.7613,1351.8876L913.54877,1335.7415 Z"/>
</g>
<g style="fill:rgb(0,0,0); fill-opacity:1.0; stroke-linejoin: miter">
<path d="M917.03754,1323.698C917.0367,1323.7021,917.0358,1323.7064,917.03485,1323.7107L917.0201,1323.7123C917.0214,1323.7064,917.02277,1323.7021,917.02423,1323.698 Z"/>
</g>
<g style="fill:rgb(0,0,0); fill-opacity:1.0; stroke-linejoin: miter">
<path d="M920.043,1310.6722Q920.05524,1310.6769,920.0673,1310.6815L920.0406,1310.6831C920.04144,1310.6785,920.0422,1310.6753,920.043,1310.6722 Z"/>
</g>
<g style="fill:rgb(0,0,0); fill-opacity:1.0; stroke-linejoin: miter">
<path d="M848.3212,1283.354Q848.33344,1283.3586,848.34564,1283.3633L848.3205,1283.3649C848.32074,1283.3602,848.321,1283.357,848.3212,1283.354 Z"/>
</g>
<g style="fill:rgb(244,67,54); fill-opacity:1.0; stroke-linejoin: miter">
<path d="M191.0597,1147.7119L191.06018,1147.7119L191.06018,1147.7119L191.0597,1147.7119"/>
</g>
<g style="fill:rgb(244,67,54); fill-opacity:1.0; stroke-linejoin: miter">
<path d="M33.89908,1354.4918L33.89923,1354.4922L33.89908,1354.4927L33.89908,1354.4918"/>
</g>
<g style="fill:rgb(255,235,59); fill-opacity:1.0; stroke-linejoin: miter">
<path d="M65.06732,1417.4272L62.892334,1418.6497L-3.8458252,1456.154C-3.8452148,1456.1553,-3.8445435,1456.1565,-3.843933,1456.1575L-3.848114,1456.1592L-3.9422607,1456.2083L-4.0733337,1456.282C-4.0727234,1456.2832,-4.072113,1456.2844,-4.071472,1456.2856L-4.075653,1456.2871L-4.8203735,1456.7019L11.949524,1488.1301L12.156464,1554.1028Q79.566345,1554.1025,146.9762,1554.1025C145.37067,1549.7322,143.91528,1545.696,142.5564,1542.0142C141.34326,1538.728,137.38275,1522.9795,131.62714,1494.2163C130.41827,1488.1748,128.58356,1482.8118,126.326965,1478.1492C122.99542,1471.2659,118.21887,1466.3162,112.45856,1462.8271C107.67078,1459.9272,100.30963,1456.7847,90.161255,1453.7424L65.06732,1417.4272 Z M0.2878418,1464.1814C0.29296875,1464.1909,0.29803467,1464.2004,0.3031311,1464.2102L0.29904175,1464.2117C0.2939148,1464.2004,0.28881836,1464.1909,0.2836914,1464.1814 Z"/>
</g>
<g style="fill:rgb(229,227,210); fill-opacity:1.0; stroke-linejoin: miter">
<path d="M344.79242,920.24L344.79218,920.23975L344.7918,920.23914L344.79242,920.24"/>
</g>
<g style="fill:rgb(229,227,210); fill-opacity:1.0; stroke-linejoin: miter">
<path d="M576.5332,1051.1777L576.5333,1051.1781L576.5334,1051.1786L576.5332,1051.1777"/>
</g>
<g style="fill:rgb(0,0,0); fill-opacity:1.0; stroke-linejoin: miter">
<path d="M915.2856,960.4824L915.2841,960.4817C869.1512,882.4154,895.039,781.73,973.1069,735.59595L973.1064,735.595C1051.1746,689.46155,1151.8608,715.34814,1197.9939,793.4148L1197.9939,793.4137C1244.1284,871.4813,1218.241,972.16675,1140.1738,1018.30066L1140.1724,1018.3004C1062.106,1064.4354,961.4206,1038.5491,915.2856,960.4824L915.2841,960.4817 M957.90094,935.2991L957.89984,935.2981C990.12665,989.83093,1060.458,1007.9133,1114.9907,975.6869L1114.989,975.6863C1169.5227,943.4608,1187.606,873.12964,1155.3804,818.5979L1155.3792,818.5973C1123.154,764.06616,1052.822,745.9839,998.2896,778.2096L998.2891,778.2092C943.7576,810.4354,925.67426,880.76697,957.90094,935.2991 Z"/>
</g>
<g style="fill:rgb(0,0,0); fill-opacity:1.0; stroke-linejoin: miter">
<path d="M848.95734,823.6472L848.9548,823.6471C854.513,802.0001,863.4384,781.2051,875.524,762.1144L920.5827,790.6388C911.51044,804.9696,904.7955,820.6057,900.6114,836.9044 Z M947.3891,692.4579L947.3886,692.45667C947.45087,692.42114,947.512,692.38513,947.5561,692.359L947.55597,692.35815L947.5561,692.359L947.55414,692.359C967.3663,680.65234,988.3388,672.4801,1009.7176,667.682L1021.39484,719.71594C1005.39044,723.3076,989.63995,729.43335,974.68756,738.26965L974.6868,738.2689L974.68536,738.271L974.68646,738.26917C974.7309,738.2444,974.51276,738.3733,974.5749,738.33655 Z M1109.7659,669.22144L1109.7637,669.2217C1131.419,674.7595,1152.2207,683.66626,1171.3213,695.7346L1142.8354,740.81775C1128.4968,731.7582,1112.8557,725.05615,1096.5525,720.8867 Z M1241.0417,767.5436L1241.041,767.5427C1241.1033,767.64685,1241.1702,767.7606,1241.2319,767.8644L1241.231,767.8633C1252.9053,787.6178,1261.0652,808.5282,1265.8682,829.8435L1213.8445,841.5663C1210.2483,825.6089,1204.1323,809.9053,1195.3206,794.99524L1195.3186,794.9949C1195.2593,794.8917,1195.241,794.8602,1195.1797,794.75696 Z M1264.4138,929.8943L1264.4114,929.89417C1258.8945,951.55164,1250.0044,972.36194,1237.9524,991.4718L1192.8457,963.0254C1201.8926,948.6798,1208.5815,933.03174,1212.7378,916.7251 Z M1166.2034,1061.2532L1166.2029,1061.2526C1166.0605,1061.3384,1165.8655,1061.4543,1165.7251,1061.5369L1165.7244,1061.5356C1146.0271,1073.1777,1125.1768,1081.3248,1103.9241,1086.134L1092.1572,1034.1198C1108.0671,1030.5205,1123.7256,1024.4132,1138.594,1015.62634L1138.593,1015.6255C1138.7117,1015.5569,1138.8384,1015.4818,1138.9536,1015.4133 Z M1003.8702,1084.7662L1003.8682,1084.7659C982.2072,1079.265,961.38885,1070.3936,942.26935,1058.3585L970.6777,1013.2262C985.03107,1022.26025,1000.6862,1028.9362,1016.9964,1033.0782 Z M872.42413,986.6676L872.42377,986.66675C872.3038,986.46484,872.1717,986.2411,872.0484,986.03394L872.04803,986.03284C860.3094,966.16833,852.1232,945.1333,847.33124,923.6942L899.3757,912.06104C902.96344,928.1112,909.0992,943.9081,917.9598,958.9022L917.9589,958.9015C918.0507,959.0559,918.15216,959.2273,918.24603,959.385 Z"/>
</g>
<g style="fill:rgb(255,179,143); fill-opacity:1.0; stroke-linejoin: miter">
<path d="M1281.008,677.11035L1281.0083,677.1101L1281.0083,677.10925L1281.0083,677.1101L1281.009,677.1096C1282.886,678.7822,1284.9092,680.66223,1285.5361,681.2317C1288.0234,683.4911,1295.4941,689.67664,1297.9524,691.57153C1299.428,692.70874,1302.03,694.8158,1303.7642,696.2739C1307.6201,699.5177,1326.2302,713.46655,1331.1917,716.9415C1333.1719,718.32886,1335.4158,719.9575,1336.2537,720.57715C1337.0742,721.1841,1339.4998,722.82336,1341.6709,724.25806C1343.8562,725.7023,1346.8071,727.68335,1348.3032,728.72034C1355.562,733.7505,1385.6877,745.0917,1396.2295,746.7694C1408.8643,748.78076,1413.062,749.52576,1416.479,750.35706C1418.5327,750.85706,1422.4148,751.6289,1425.1414,752.10034C1427.7986,752.5609,1433.3135,753.98096,1437.3892,755.2781C1447.0718,758.8312,1456.9011,765.4264,1456.9011,765.4264C1459.7402,767.3307,1464.3303,770.3799,1469.2832,773.6815C1476.7119,778.6345,1478.8032,780.0963,1480.4033,781.2886C1481.346,781.99146,1483.1677,783.2141,1484.3167,783.94336C1488.408,786.5403,1491.8679,788.95435,1493.0269,789.92224C1493.657,790.448,1495.8225,791.9586,1497.8025,793.31226C1504.5996,797.9595,1458.0557,766.71387,1498.3806,793.41113L1518.2705,810.667C1478.2983,892.39954,1471.2522,885.21204,1471.2522,885.21204C1470.5935,884.54065,1469.7522,883.5674,1469.3103,883.07544C1468.8909,882.60876,1468.0752,881.87524,1467.6318,881.4724C1467.169,881.0503,1464.2971,878.1986,1461.2502,875.1709C1458.2036,872.1426,1454.1841,868.26807,1452.3069,866.5974C1450.4294,864.9264,1447.884,862.63586,1446.6301,861.4962C1439.8445,855.32935,1434.2969,851.121,1425.9883,845.7123C1422.7112,843.5785,1415.1448,840.9923,1411.8406,840.93066C1407.4961,840.84924,1403.1411,841.45044,1399.2615,842.6731C1395.437,843.879,1393.1785,844.4574,1391.25,844.70154C1390.6272,844.77966,1387.9221,845.3583,1385.2803,845.9402C1372.8098,848.6874,1362.3267,848.3629,1338.7249,844.63574C1321.6467,841.93933,1305.4832,842.30334,1292.5151,845.5951C1290.1023,846.2075,1287.2737,846.83435,1286.3455,846.9879C1284.9219,847.2235,1274.8062,850.499,1269.1387,852.5691C1267.5454,853.1515,1255.6855,858.1284,1247.9941,861.4823C1242.4902,863.88184,1236.4973,864.8436,1234.5491,863.59827C1230.594,861.07153,1228.7805,854.1732,1230.6213,848.7273C1231.6321,845.7385,1235.8591,839.4358,1237.0469,839.13184C1237.4817,839.0204,1237.9368,838.47046,1238.1165,837.9391C1238.521,836.74365,1245.0574,832.067,1251.7476,828.2628C1257.0579,825.2444,1271.1155,819.10803,1278.136,816.756C1280.4629,815.9768,1282.7356,815.2096,1283.1543,815.0482C1285.8,814.0254,1300.3154,809.8209,1300.6477,809.9332C1300.8464,810.0006,1302.1926,809.69446,1303.6216,809.2362C1307.5881,807.9651,1318.4026,805.57324,1319.0669,805.7977C1319.4656,805.93274,1320.4573,805.5918,1321.2871,805.14197C1322.8135,804.3153,1322.489,803.99426,1311.4158,795.8109C1305.1384,791.1727,1299.3413,786.8933,1298.508,786.2676C1290.3672,780.15955,1274.4138,773.9159,1265.1943,773.1575C1258.5002,772.6074,1248.4556,772.2827,1245.6423,772.5432C1244.3306,772.6643,1242.9363,772.6654,1242.5374,772.5304C1242.1394,772.3954,1241.1885,772.3822,1240.3867,772.54333C1239.6794,772.6859,1236.3523,772.9147,1233.0234,773.089C1224.5979,773.53064,1222.1792,773.6422,1213.4626,774.46985C1210.5571,774.7461,1207.9841,774.9126,1207.6523,774.8002C1207.3201,774.6881,1206.1204,774.713,1204.8804,774.8999C1200.9736,775.4894,1197.1394,775.68787,1196.2092,775.3733C1195.678,775.1941,1194.9431,775.2804,1194.4795,775.45483C1194.0063,775.63245,1191.7954,775.7318,1189.5784,775.7228C1187.3613,775.71313,1184.7017,775.71387,1183.7249,775.74207C1182.6833,775.7716,1179.1191,775.34204,1175.7476,774.82166C1170.2561,773.97437,1169.1411,773.58887,1164.8772,771.0736C1154.4548,764.9252,1150.8875,758.21326,1155.7708,753.78613C1158.6763,751.1515,1162.9272,750.7616,1174.2693,752.04553C1187.9465,753.5939,1199.2302,752.85913,1206.8699,749.96545C1213.0657,747.6188,1227.8083,743.8988,1236.7219,742.442C1248.1758,740.5698,1248.5564,739.8353,1239.5398,736.7334C1236.1575,735.5708,1231.1956,733.3949,1228.4521,731.87573C1225.71,730.3562,1222.5461,728.76843,1221.4829,728.41003C1218.3616,727.3544,1210.719,722.57263,1205.2964,718.2759C1196.7087,711.4724,1190.0574,703.58044,1187.1619,696.82715C1184.3054,690.1647,1185.4424,685.86255,1190.6992,683.29553C1194.0413,681.66345,1195.2786,682.0232,1197.9412,685.29895C1199.094,686.7175,1200.4346,687.99255,1200.8997,688.1492C1201.3643,688.3064,1201.9387,688.79663,1202.1587,689.24146C1202.7742,690.48535,1216.2307,701.4718,1217.8252,702.01086C1218.5557,702.25757,1220.3159,703.385,1221.783,704.53284C1224.647,706.7731,1241.7039,712.808,1247.22,713.5742C1250.2566,713.9967,1251.6987,712.58093,1249.4463,711.3666C1248.7566,710.99475,1245.793,708.84644,1242.904,706.6388C1223.2068,691.59143,1214.8406,678.6489,1223.0798,675.7372C1226.1875,674.63916,1227.9121,674.8207,1230.7688,676.63464C1233.3965,678.3025,1238.8679,681.5818,1247.8215,686.61646C1250.7458,688.26135,1254.3206,690.34436,1255.873,691.26184C1258.7012,692.9352,1263.4756,695.4741,1271.2703,699.3523C1273.6755,700.5497,1276.9473,702.2794,1278.4817,703.19604C1282.3655,705.5172,1289.865,708.78845,1290.8088,708.5469C1291.4875,708.37317,1288.5227,703.7041,1287.5261,703.3677C1287.3271,703.30054,1286.3787,702.1654,1285.4971,700.83154C1284.6162,699.4972,1283.6675,698.3627,1283.468,698.2953C1283.2024,698.20557,1282.1658,696.8418,1281.1531,695.29224C1280.1172,693.7063,1279.0374,692.3568,1278.7717,692.2672C1278.44,692.155,1277.4258,690.77576,1276.5454,689.2201C1275.6646,687.6653,1274.231,685.7296,1273.481,684.92847C1272.0012,683.3473,1268.9036,676.7949,1269.2402,675.7981C1269.3525,675.4663,1270.1501,674.7428,1271.0435,674.18726C1273.6191,672.584,1277.0769,673.63586,1281.008,677.11035L1281.0083,677.1101L1281.008,677.11035L1281.0083,677.1101L1281.008,677.11035 Z"/>
</g>
<g style="fill:rgb(255,255,255); fill-opacity:1.0; stroke-linejoin: miter">
<path d="M1401.1096,843.161L1420.529,859.2677L1439.9492,875.3749Q1476.3218,831.5237,1512.6951,787.67236Q1493.2764,771.5646,1473.8567,755.45667Q1437.4832,799.30884,1401.1096,843.161 Z"/>
</g>
<g style="fill:rgb(0,0,0); fill-opacity:1.0; stroke-linejoin: miter">
<path d="M882.72064,968.7916L882.7198,968.79297L882.72125,968.7932L882.72064,968.7916"/>
</g>
<g style="fill:rgb(229,227,210); fill-opacity:1.0; stroke-linejoin: miter">
<path d="M974.6298,679.27454L974.6302,679.27454L974.63043,679.2744L974.6298,679.27454"/>
</g>
<g style="fill:rgb(0,0,0); fill-opacity:1.0; stroke-linejoin: miter">
<path d="M1413.1309,856.32935L1413.1309,856.33093L1413.1309,856.3325L1413.1309,856.3341L1413.1309,856.3358L1413.1309,856.3374L1625.3428,1006.1438C1627.4968,905.65967,1626.0903,827.1251,1625.9551,826.9503C1625.6265,826.525,1497.7693,768.78076,1496.1172,768.4784C1494.4653,768.176,1424.7285,843.48267,1413.1309,856.32935L1413.1309,856.3303L1413.1309,856.32935L1413.1309,856.33093L1413.1309,856.32935L1413.1309,856.33093L1413.1309,856.32935 Z"/>
</g>
<g>
<g style="fill:rgb(255,255,255); fill-opacity:1.0; stroke-linejoin: miter">
<path d="M63.20273,1043.6013L62.63852,1076.9082L86.04779,1077.3046L84.78897,1151.6168L118.09607,1152.1813L119.35492,1077.8689L142.76422,1078.2655L143.32843,1044.9585L63.20273,1043.6013 Z"/>
</g>
</g>
<g>
<g style="fill:rgb(255,255,255); fill-opacity:1.0; stroke-linejoin: miter">
<path d="M461.167,1095.1846L393.21008,1095.4961L393.71307,1205.1244L461.66992,1204.8125L461.5141,1170.8342L427.69592,1170.9894L427.67902,1167.3029L474.4795,1167.0883L474.3228,1132.9498L427.5224,1133.1644L427.50537,1129.4784L461.3236,1129.323L461.167,1095.1846 Z"/>
</g>
</g>
<g>
<g style="fill:rgb(255,255,255); fill-opacity:1.0; stroke-linejoin: miter">
<path d="M724.1849,993.83496Q725.0347,993.83496,725.1905,994.82446L728.86945,1022.17737Q728.90985,1023.45386,727.37836,1023.5022L721.37933,1023.6926Q721.32306,1023.69446,721.26886,1023.69446Q719.8461,1023.69446,719.80707,1022.4647L721.61664,994.93774Q721.71185,993.9127,722.4776,993.8883L724.137,993.8358Q724.1612,993.83496,724.1849,993.83496 Z M742.3995,954.54675Q742.29254,954.54675,742.1828,954.5502L704.2746,955.7532Q699.0413,955.9192,698.85675,962.18555L692.9766,1058.7072L717.9936,1057.9137L719.268,1037.6862L730.5002,1037.3297L733.5655,1057.4197L758.8377,1056.6179L747.2275,960.5227Q746.883,957.7228,745.6818,956.1001Q744.65656,954.54675,742.3995,954.54675 Z"/>
</g>
</g>
<g>
<g style="fill:rgb(255,255,255); fill-opacity:1.0; stroke-linejoin: miter">
<path d="M1112.5708,813.48804L1061.5347,878.4595L1003.80255,819.4558L1003.80255,819.4558L1009.9976,927.0266L1041.28,925.22485L1039.6487,896.89343L1064.166,926.71985L1085.8176,893.9385L1087.4663,922.56494L1118.7493,920.7634L1112.5708,813.48804 Z"/>
</g>
</g>
<g style="fill:rgb(0,0,0); fill-opacity:1.0; stroke-linejoin: miter">
<path d="M488.13977,1436.4758L488.13977,1436.4775L410.8064,1554.3755C495.12952,1554.1028,510.47888,1554.1028,510.47888,1554.1028C523.90955,1554.1028,537.3408,1554.1028,550.7728,1554.1033L550.7729,1554.1018C562.55,1534.5881,574.3238,1515.0745,586.09424,1495.561C584.0158,1494.3071,581.9352,1493.0535,579.8525,1491.8L579.8525,1491.8018C579.39465,1491.5217,578.9346,1491.2422,578.47235,1490.9636L578.4623,1490.9651C548.358,1472.8013,518.2505,1454.6382,488.13977,1436.4758L488.13977,1436.4775 Z"/>
</g>
</g>
</svg>